<svg width="32" height="32" viewBox="0 0 32 32" fill="none" xmlns="http://www.w3.org/2000/svg">
<path d="M15 2.5C15 3.9 15.5 5 16 5C16.6 5 17 3.9 17 2.5C17 1.1 16.6 -7.45058e-08 16 -7.45058e-08C15.5 -7.45058e-08 15 1.1 15 2.5Z" fill="white"/>
<path d="M5.20001 6.09999C5.40001 6.79999 6.20001 7.59999 6.90001 7.79999C7.70001 8.09999 8.10001 7.69999 7.80001 6.89999C7.60001 6.19999 6.80001 5.39999 6.10001 5.19999C5.30001 4.89999 4.90001 5.29999 5.20001 6.09999Z" fill="white"/>
<path d="M24.5 6.1C23.3 8 25 8.4 26.7 6.7C28.3 5.1 28.3 5 26.8 5C25.9 5 24.8 5.5 24.5 6.1Z" fill="white"/>
<path d="M10.5 10.5C5.49999 15.4 8.99999 24 16 24C23 24 26.5 15.4 21.5 10.5C20 8.9 17.9 8 16 8C14.1 8 12 8.9 10.5 10.5ZM20.2 11.7C22.4 13.7 22.5 17.8 20.3 20.2C16.9 24 9.99999 21.3 9.99999 16.2C9.99999 10.8 16.2 8.1 20.2 11.7Z" fill="white"/>
<path d="M0 16C0 16.5 1.1 17 2.5 17C3.9 17 5 16.5 5 16C5 15.4 3.9 15 2.5 15C1.1 15 0 15.4 0 16Z" fill="white"/>
<path d="M27 16C27 16.5 28.1 17 29.5 17C30.9 17 32 16.5 32 16C32 15.4 30.9 15 29.5 15C28.1 15 27 15.4 27 16Z" fill="white"/>
<path d="M5.7 24.7C5.3 25 5 26 5 26.8C5 28 5.3 28 6.5 27C7.3 26.3 8 25.4 8 24.9C8 23.8 6.6 23.7 5.7 24.7Z" fill="white"/>
<path d="M24.2 25.1C24.4 25.8 25.2 26.6 25.9 26.8C26.7 27.1 27.1 26.7 26.8 25.9C26.6 25.2 25.8 24.4 25.1 24.2C24.3 23.9 23.9 24.3 24.2 25.1Z" fill="white"/>
<path d="M15 29.5C15 30.9 15.5 32 16 32C16.6 32 17 30.9 17 29.5C17 28.1 16.6 27 16 27C15.5 27 15 28.1 15 29.5Z" fill="white"/>
</svg>
