<svg width="542" height="513" viewBox="0 0 542 513" fill="none" xmlns="http://www.w3.org/2000/svg">
<path opacity="0.35" fill-rule="evenodd" clip-rule="evenodd" d="M497.711 139.094C542.952 229.191 551.492 343.158 459.712 418.188C365.256 495.408 227.37 492.174 124.54 444.165C28.26 399.214 -19.571 305.847 8.56169 207.556C37.4538 106.612 132.281 19.073 250.963 2.46211C365.51 -13.5699 454.5 53.0391 497.711 139.094Z" fill="#23A6F0"/>
<path opacity="0.4" fill-rule="evenodd" clip-rule="evenodd" d="M326.508 20.1822C429.644 41.5738 531.283 105.357 540.541 220.822C550.07 339.655 465.71 441.672 364.154 489.656C269.067 534.583 161.627 513.13 94.9806 431.343C26.5352 347.348 8.4801 221.877 64.6558 122.117C118.874 25.8336 228 -0.249611 326.508 20.1822Z" fill="#23A6F0"/>
</svg>
